# xmcd
#
# Track frame offsets: 
#        150
#        12824
#        29103
#        44112
#        61266
#        78432
#        91919
#        108672
#        123024
#        145044
#        161101
#        177230
#
# Disc length: 2714 seconds
#
# Revision: 0
# Processed by: cddbd v1.5.2PL0 Copyright (c) Steve Scherf et al.
# Submitted via: ExactAudioCopy v0.99pb5
#
DISCID=9e0a980c
DTITLE=Brendon Radford - Snow
DYEAR=2009
DGENRE=Country
TTITLE0=Sweet Maree
TTITLE1=I Don't Know
TTITLE2=Don't Think Twice
TTITLE3=What's Going On
TTITLE4=Stop The Night
TTITLE5=Pronto Tonto
TTITLE6=Snow
TTITLE7=New Morning
TTITLE8=Shooting Star
TTITLE9=If I Needed You (Duet with Casy Wait)
TTITLE10=Rear View Mirror
TTITLE11=Coongoola Station
EXTD=
EXTT0=
EXTT1=
EXTT2=
EXTT3=
EXTT4=
EXTT5=
EXTT6=
EXTT7=
EXTT8=
EXTT9=
EXTT10=
EXTT11=
PLAYORDER=
